<svg xmlns="http://www.w3.org/2000/svg" width="301" height="79" viewBox="0 0 301 79" fill="none"><path d="M95.2389 15.6892H129.225V24.7148H105.821V34.7986H125.366V43.4508H105.821V62H95.2389V15.6892ZM141.566 34.7986H141.752C142.831 32.4748 144.118 30.8149 145.612 29.819C147.106 28.8231 148.89 28.3251 150.965 28.3251C151.961 28.3251 152.645 28.4081 153.019 28.5741V37.1017H152.77C152.064 36.9772 151.38 36.915 150.716 36.915C148.06 36.8735 145.923 37.6827 144.304 39.3426C142.728 40.961 141.939 43.3885 141.939 46.6253V62H132.167V28.8853H141.566V34.7986ZM172.402 62.9959C169.704 62.9959 167.277 62.5602 165.119 61.6888C162.961 60.7758 161.114 59.5309 159.579 57.954C158.085 56.3771 156.923 54.5305 156.093 52.4142C155.305 50.2978 154.911 47.9947 154.911 45.5049C154.911 43.0151 155.326 40.712 156.155 38.5956C156.985 36.4378 158.147 34.5704 159.641 32.9935C161.135 31.4166 162.92 30.1925 164.994 29.321C167.069 28.4081 169.372 27.9516 171.904 27.9516C174.269 27.9516 176.385 28.3251 178.253 29.072C180.162 29.819 181.842 30.8564 183.295 32.1843C185.162 34.0102 186.531 36.2718 187.403 38.9691C188.274 41.6664 188.689 44.6542 188.648 47.9325H164.496C164.828 50.4223 165.658 52.3727 166.986 53.7836C168.314 55.1945 170.161 55.8999 172.526 55.8999C174.061 55.8999 175.306 55.6302 176.261 55.0907C177.257 54.5098 178.024 53.7006 178.564 52.6631H188.025C187.61 54.1155 186.946 55.485 186.033 56.7714C185.162 58.0163 184.062 59.116 182.734 60.0704C181.448 60.9833 179.933 61.6888 178.19 62.1867C176.448 62.7262 174.518 62.9959 172.402 62.9959ZM171.904 34.8609C169.663 34.8609 167.961 35.5248 166.799 36.8527C165.638 38.1807 164.891 39.9858 164.559 42.2681H178.688C178.522 39.9443 177.838 38.1392 176.634 36.8527C175.431 35.5248 173.854 34.8609 171.904 34.8609ZM207.116 62.8714C201.805 62.8714 197.821 61.5435 195.165 58.8877C192.551 56.2319 191.244 52.6009 191.244 47.9947V44.4467H201.016V47.7457C201.016 50.0696 201.493 51.7087 202.448 52.6631C203.402 53.6176 204.751 54.0948 206.494 54.0948C208.278 54.0948 209.585 53.5968 210.415 52.6009C211.245 51.5635 211.66 50.1111 211.66 48.2437V15.6892H222.304V48.4927C222.304 52.3934 221.329 55.5057 219.379 57.8295C218.134 59.4064 216.474 60.6513 214.399 61.5643C212.366 62.4357 209.938 62.8714 207.116 62.8714ZM249.885 62V57.2693H249.699C248.495 59.2197 247.105 60.6513 245.528 61.5643C243.951 62.4772 242.022 62.9337 239.739 62.9337C235.963 62.9337 233.079 61.834 231.087 59.6347C229.095 57.3938 228.099 54.4475 228.099 50.7958V28.8853H237.872V48.9284C237.872 50.7958 238.308 52.2274 239.179 53.2234C240.092 54.2193 241.42 54.7173 243.163 54.7173C245.155 54.7173 246.711 54.0533 247.831 52.7254C248.952 51.3975 249.512 49.6961 249.512 47.6213V28.8853H259.16V62H249.885ZM274.449 33.9272H274.636C275.674 31.9353 277.043 30.4414 278.744 29.4455C280.487 28.4496 282.521 27.9516 284.845 27.9516C288.496 27.9516 291.318 29.072 293.31 31.3129C295.343 33.5122 296.36 36.4793 296.36 40.214V62H286.65V42.0814C286.65 40.2555 286.172 38.8031 285.218 37.7242C284.305 36.6038 282.936 36.0436 281.11 36.0436C279.201 36.0436 277.666 36.7283 276.504 38.0977C275.342 39.4671 274.761 41.2099 274.761 43.3263V62H264.988V28.8853H274.449V33.9272Z" fill="#2D2D2D"/><circle cx="69.0018" cy="34.4676" r="7.66687" fill="#34CB65"/><circle cx="51.1092" cy="21.6869" r="7.66687" fill="#34CB65"/><circle cx="25.5575" cy="21.6869" r="7.66687" fill="#34CB65"/><circle cx="7.66687" cy="34.4676" r="7.66687" fill="#34CB65"/><circle cx="38.1795" cy="49.8011" r="12.7781" fill="#34CB65"/></svg>